# ProBuilder 5.0.7
# https://unity3d.com/unity/features/worldbuilding/probuilder
# 7/25/2023 8:27:14 PM

mtllib ./.64_Thick.mtl
o .64 Thick

g .64 Thick
v -0.4957224 -0.13 0.0652631
v -0.5 -0.13 0
v -0.4957224 0.13 0.0652631
v -0.5 0.13 0
v -0.436 -0.13 0
v -0.43227 -0.13 0.05690942
v -0.436 0.13 0
v -0.43227 0.13 0.05690942
v -0.4829629 -0.13 0.1294095
v -0.4829629 0.13 0.1294095
v -0.4211437 -0.13 0.1128451
v -0.4211437 0.13 0.1128451
v -0.4619398 -0.13 0.1913417
v -0.4619398 0.13 0.1913417
v -0.4028115 -0.13 0.16685
v -0.4028115 0.13 0.16685
v -0.4330127 -0.13 0.25
v -0.4330127 0.13 0.25
v -0.3775871 -0.13 0.218
v -0.3775871 0.13 0.218
v -0.3966767 -0.13 0.3043807
v -0.3966767 0.13 0.3043807
v -0.3459021 -0.13 0.26542
v -0.3459021 0.13 0.26542
v -0.3535534 -0.13 0.3535534
v -0.3535534 0.13 0.3535534
v -0.3082986 -0.13 0.3082986
v -0.3082986 0.13 0.3082986
v -0.3043807 -0.13 0.3966767
v -0.3043807 0.13 0.3966767
v -0.26542 -0.13 0.3459021
v -0.26542 0.13 0.3459021
v -0.25 -0.13 0.4330127
v -0.25 0.13 0.4330127
v -0.218 -0.13 0.3775871
v -0.218 0.13 0.3775871
v -0.1913417 -0.13 0.4619398
v -0.1913417 0.13 0.4619398
v -0.16685 -0.13 0.4028115
v -0.16685 0.13 0.4028115
v -0.1294095 -0.13 0.4829629
v -0.1294095 0.13 0.4829629
v -0.1128451 -0.13 0.4211437
v -0.1128451 0.13 0.4211437
v -0.06526312 -0.13 0.4957224
v -0.06526312 0.13 0.4957224
v -0.05690944 -0.13 0.4322699
v -0.05690944 0.13 0.4322699
v 2.185569E-08 -0.13 0.5
v 2.185569E-08 0.13 0.5
v 1.905816E-08 -0.13 0.436
v 1.905816E-08 0.13 0.436
v 0.06526311 -0.13 0.4957224
v 0.06526311 0.13 0.4957224
v 0.05690943 -0.13 0.43227
v 0.05690943 0.13 0.43227
v 0.1294095 -0.13 0.4829629
v 0.1294095 0.13 0.4829629
v 0.1128451 -0.13 0.4211437
v 0.1128451 0.13 0.4211437
v 0.1913417 -0.13 0.4619398
v 0.1913417 0.13 0.4619398
v 0.16685 -0.13 0.4028115
v 0.16685 0.13 0.4028115
v 0.25 -0.13 0.4330127
v 0.25 0.13 0.4330127
v 0.218 -0.13 0.3775871
v 0.218 0.13 0.3775871
v 0.3043807 -0.13 0.3966767
v 0.3043807 0.13 0.3966767
v 0.26542 -0.13 0.3459021
v 0.26542 0.13 0.3459021
v 0.3535534 -0.13 0.3535534
v 0.3535534 0.13 0.3535534
v 0.3082986 -0.13 0.3082986
v 0.3082986 0.13 0.3082986
v 0.3966767 -0.13 0.3043807
v 0.3966767 0.13 0.3043807
v 0.3459021 -0.13 0.26542
v 0.3459021 0.13 0.26542
v 0.4330127 -0.13 0.25
v 0.4330127 0.13 0.25
v 0.3775871 -0.13 0.218
v 0.3775871 0.13 0.218
v 0.4619398 -0.13 0.1913417
v 0.4619398 0.13 0.1913417
v 0.4028115 -0.13 0.16685
v 0.4028115 0.13 0.16685
v 0.4829629 -0.13 0.1294096
v 0.4829629 0.13 0.1294096
v 0.4211437 -0.13 0.1128451
v 0.4211437 0.13 0.1128451
v 0.4957224 -0.13 0.06526316
v 0.4957224 0.13 0.06526316
v 0.4322699 -0.13 0.05690948
v 0.4322699 0.13 0.05690948
v 0.5 -0.13 -4.371139E-08
v 0.5 0.13 -4.371139E-08
v 0.436 -0.13 -3.811633E-08
v 0.436 0.13 -3.811633E-08
v 0.4957224 -0.13 -0.06526313
v 0.4957224 0.13 -0.06526313
v 0.4322699 -0.13 -0.05690945
v 0.4322699 0.13 -0.05690945
v 0.4829629 -0.13 -0.1294095
v 0.4829629 0.13 -0.1294095
v 0.4211437 -0.13 -0.1128451
v 0.4211437 0.13 -0.1128451
v 0.4619398 -0.13 -0.1913417
v 0.4619398 0.13 -0.1913417
v 0.4028115 -0.13 -0.16685
v 0.4028115 0.13 -0.16685
v 0.4330127 -0.13 -0.25
v 0.4330127 0.13 -0.25
v 0.3775871 -0.13 -0.218
v 0.3775871 0.13 -0.218
v 0.3966767 -0.13 -0.3043807
v 0.3966767 0.13 -0.3043807
v 0.3459021 -0.13 -0.26542
v 0.3459021 0.13 -0.26542
v 0.3535534 -0.13 -0.3535534
v 0.3535534 0.13 -0.3535534
v 0.3082986 -0.13 -0.3082985
v 0.3082986 0.13 -0.3082985
v 0.3043807 -0.13 -0.3966766
v 0.3043807 0.13 -0.3966766
v 0.26542 -0.13 -0.345902
v 0.26542 0.13 -0.345902
v 0.25 -0.13 -0.4330127
v 0.25 0.13 -0.4330127
v 0.218 -0.13 -0.3775871
v 0.218 0.13 -0.3775871
v 0.1913418 -0.13 -0.4619398
v 0.1913418 0.13 -0.4619398
v 0.16685 -0.13 -0.4028115
v 0.16685 0.13 -0.4028115
v 0.1294095 -0.13 -0.4829629
v 0.1294095 0.13 -0.4829629
v 0.1128451 -0.13 -0.4211437
v 0.1128451 0.13 -0.4211437
v 0.0652632 -0.13 -0.4957224
v 0.0652632 0.13 -0.4957224
v 0.05690951 -0.13 -0.4322699
v 0.05690951 0.13 -0.4322699
v -5.96244E-09 -0.13 -0.5
v -5.96244E-09 0.13 -0.5
v -5.199248E-09 -0.13 -0.436
v -5.199248E-09 0.13 -0.436
v -0.06526297 -0.13 -0.4957224
v -0.06526297 0.13 -0.4957224
v -0.05690931 -0.13 -0.43227
v -0.05690931 0.13 -0.43227
v -0.1294095 -0.13 -0.4829629
v -0.1294095 0.13 -0.4829629
v -0.1128451 -0.13 -0.4211437
v -0.1128451 0.13 -0.4211437
v -0.1913418 -0.13 -0.4619397
v -0.1913418 0.13 -0.4619397
v -0.16685 -0.13 -0.4028114
v -0.16685 0.13 -0.4028114
v -0.25 -0.13 -0.4330127
v -0.25 0.13 -0.4330127
v -0.218 -0.13 -0.3775871
v -0.218 0.13 -0.3775871
v -0.3043808 -0.13 -0.3966766
v -0.3043808 0.13 -0.3966766
v -0.26542 -0.13 -0.345902
v -0.26542 0.13 -0.345902
v -0.3535533 -0.13 -0.3535534
v -0.3535533 0.13 -0.3535534
v -0.3082985 -0.13 -0.3082986
v -0.3082985 0.13 -0.3082986
v -0.3966767 -0.13 -0.3043807
v -0.3966767 0.13 -0.3043807
v -0.3459021 -0.13 -0.26542
v -0.3459021 0.13 -0.26542
v -0.4330127 -0.13 -0.2500001
v -0.4330127 0.13 -0.2500001
v -0.3775871 -0.13 -0.2180001
v -0.3775871 0.13 -0.2180001
v -0.4619398 -0.13 -0.1913417
v -0.4619398 0.13 -0.1913417
v -0.4028115 -0.13 -0.16685
v -0.4028115 0.13 -0.16685
v -0.4829629 -0.13 -0.1294096
v -0.4829629 0.13 -0.1294096
v -0.4211436 -0.13 -0.1128452
v -0.4211436 0.13 -0.1128452
v -0.4957224 -0.13 -0.06526311
v -0.4957224 0.13 -0.06526311
v -0.43227 -0.13 -0.05690943
v -0.43227 0.13 -0.05690943

vt 0.03270166 -0.13
vt -0.03270147 -0.13
vt 0.03270166 0.13
vt -0.03270147 0.13
vt 0.02851567 -0.13
vt -0.02851586 -0.13
vt 0.02851567 0.13
vt -0.02851586 0.13
vt -0.5 0
vt -0.4957224 0.0652631
vt -0.436 0
vt -0.43227 0.05690942
vt 0.4957224 0.0652631
vt 0.5 0
vt 0.43227 0.05690942
vt 0.436 0
vt -0.4829629 0.1294095
vt -0.4211437 0.1128451
vt 0.4829629 0.1294095
vt 0.4211437 0.1128451
vt -0.4619398 0.1913417
vt -0.4028115 0.16685
vt 0.4619398 0.1913417
vt 0.4028115 0.16685
vt -0.4330127 0.25
vt -0.3775871 0.218
vt 0.4330127 0.25
vt 0.3775871 0.218
vt -0.3966767 0.3043807
vt -0.3459021 0.26542
vt 0.3966767 0.3043807
vt 0.3459021 0.26542
vt -0.3535534 0.3535534
vt -0.3082986 0.3082986
vt 0.3535534 0.3535534
vt 0.3082986 0.3082986
vt -0.3043807 0.3966767
vt -0.26542 0.3459021
vt 0.3043807 0.3966767
vt 0.26542 0.3459021
vt -0.25 0.4330127
vt -0.218 0.3775871
vt 0.25 0.4330127
vt 0.218 0.3775871
vt -0.1913417 0.4619398
vt -0.16685 0.4028115
vt 0.1913417 0.4619398
vt 0.16685 0.4028115
vt -0.1294095 0.4829629
vt -0.1128451 0.4211437
vt 0.1294095 0.4829629
vt 0.1128451 0.4211437
vt -0.06526312 0.4957224
vt -0.05690944 0.4322699
vt 0.06526312 0.4957224
vt 0.05690944 0.4322699
vt 2.185569E-08 0.5
vt 1.905816E-08 0.436
vt 0.25 0.4330127
vt 0.218 0.3775871
vt -0.25 0.4330127
vt -0.218 0.3775871
vt 0.3775871 0.218
vt -0.3775871 0.218
vt 0.4957224 -0.06526313
vt 0.4322699 -0.05690945
vt -0.4957224 -0.06526313
vt -0.4322699 -0.05690945
vt 0.4829629 -0.1294095
vt 0.4211437 -0.1128451
vt -0.4829629 -0.1294095
vt -0.4211437 -0.1128451
vt 0.4619398 -0.1913417
vt 0.4028115 -0.16685
vt -0.4619398 -0.1913417
vt -0.4028115 -0.16685
vt 0.4330127 -0.25
vt 0.3775871 -0.218
vt -0.4330127 -0.25
vt -0.3775871 -0.218
vt 0.3966767 -0.3043807
vt 0.3459021 -0.26542
vt -0.3966767 -0.3043807
vt -0.3459021 -0.26542
vt 0.3535534 -0.3535534
vt 0.3082986 -0.3082985
vt -0.3535534 -0.3535534
vt -0.3082986 -0.3082985
vt 0.3043807 -0.3966766
vt 0.26542 -0.345902
vt -0.3043807 -0.3966766
vt -0.26542 -0.345902
vt 0.25 -0.4330127
vt 0.218 -0.3775871
vt -0.25 -0.4330127
vt -0.218 -0.3775871
vt 0.1913418 -0.4619398
vt 0.16685 -0.4028115
vt -0.1913418 -0.4619398
vt -0.16685 -0.4028115
vt 0.1294095 -0.4829629
vt 0.1128451 -0.4211437
vt -0.1294095 -0.4829629
vt -0.1128451 -0.4211437
vt 0.0652632 -0.4957224
vt 0.05690951 -0.4322699
vt -0.0652632 -0.4957224
vt -0.05690951 -0.4322699
vt -5.96244E-09 -0.5
vt -5.199248E-09 -0.436
vt -0.4330127 -0.2500001
vt -0.3775871 -0.2180001
vt 0.4330127 -0.2500001
vt 0.3775871 -0.2180001

vn -0.9914449 0 0.1305263
vn -1 0 7.466567E-09
vn 1 0 -3.733283E-09
vn 0.9914449 0 -0.1305262
vn -0.9659258 0 0.2588192
vn 0.9659258 0 -0.2588191
vn -0.9238796 0 0.3826834
vn 0.9238796 0 -0.3826834
vn -0.8660254 0 0.5000001
vn 0.8660255 0 -0.4999999
vn -0.7933533 0 0.6087614
vn 0.7933534 0 -0.6087614
vn -0.7071068 0 0.7071068
vn 0.7071068 0 -0.7071068
vn -0.6087615 0 0.7933533
vn 0.6087614 0 -0.7933534
vn -0.4999999 0 0.8660254
vn 0.4999999 0 -0.8660255
vn -0.3826833 0 0.9238796
vn 0.3826834 0 -0.9238796
vn -0.2588191 0 0.9659258
vn 0.2588189 0 -0.9659259
vn -0.1305262 0 0.9914449
vn 0.1305262 0 -0.9914449
vn -1.941307E-07 0 1
vn 2.314636E-07 0 -1
vn 0.1305263 0 0.9914449
vn -0.1305262 0 -0.9914449
vn 0.2588191 0 0.9659258
vn -0.258819 0 -0.9659259
vn 0.3826833 0 0.9238796
vn -0.3826832 0 -0.9238796
vn 0.5000001 0 0.8660253
vn -0.5000001 0 -0.8660253
vn 0.6087615 0 0.7933533
vn -0.6087615 0 -0.7933533
vn 0.7071068 0 0.7071068
vn -0.7071068 0 -0.7071068
vn 0.7933533 0 0.6087615
vn -0.7933533 0 -0.6087615
vn 0.8660253 0 0.5000001
vn -0.8660254 0 -0.5
vn 0.9238796 0 0.3826835
vn -0.9238796 0 -0.3826834
vn 0.9659258 0 0.2588191
vn -0.9659259 0 -0.2588189
vn 0.9914449 0 0.1305262
vn -0.9914449 0 -0.1305262
vn -0.8660255 0 0.4999998
vn 0.5000002 0 -0.8660253
vn -0.5000001 0 0.8660253
vn -0.4999999 0 -0.8660255
vn 0.5 0 0.8660254
vn 0 -1 0
vn 0 1 0

usemtl ProBuilderDefault
f 3/3/1 4/4/2 2/2/2 1/1/1
f 7/7/3 8/8/4 6/6/4 5/5/3
f 10/3/5 3/4/1 1/2/1 9/1/5
f 8/7/4 12/8/6 11/6/6 6/5/4
f 14/3/7 10/4/5 9/2/5 13/1/7
f 12/7/6 16/8/8 15/6/8 11/5/6
f 18/3/9 14/4/7 13/2/7 17/1/9
f 16/7/8 20/8/10 19/6/10 15/5/8
f 22/3/11 18/4/9 17/2/9 21/1/11
f 20/7/10 24/8/12 23/6/12 19/5/10
f 26/3/13 22/4/11 21/2/11 25/1/13
f 24/7/12 28/8/14 27/6/14 23/5/12
f 30/3/15 26/4/13 25/2/13 29/1/15
f 28/7/14 32/8/16 31/6/16 27/5/14
f 34/3/17 30/4/15 29/2/15 33/1/17
f 32/7/16 36/8/18 35/6/18 31/5/16
f 38/3/19 34/4/17 33/2/17 37/1/19
f 36/7/18 40/8/20 39/6/20 35/5/18
f 42/3/21 38/4/19 37/2/19 41/1/21
f 40/7/20 44/8/22 43/6/22 39/5/20
f 46/3/23 42/4/21 41/2/21 45/1/23
f 44/7/22 48/8/24 47/6/24 43/5/22
f 50/3/25 46/4/23 45/2/23 49/1/25
f 48/7/24 52/8/26 51/6/26 47/5/24
f 54/3/27 50/4/25 49/2/25 53/1/27
f 52/7/26 56/8/28 55/6/28 51/5/26
f 58/3/29 54/4/27 53/2/27 57/1/29
f 56/7/28 60/8/30 59/6/30 55/5/28
f 62/3/31 58/4/29 57/2/29 61/1/31
f 60/7/30 64/8/32 63/6/32 59/5/30
f 66/3/33 62/4/31 61/2/31 65/1/33
f 64/7/32 68/8/34 67/6/34 63/5/32
f 70/3/35 66/4/33 65/2/33 69/1/35
f 68/7/34 72/8/36 71/6/36 67/5/34
f 74/3/37 70/4/35 69/2/35 73/1/37
f 72/7/36 76/8/38 75/6/38 71/5/36
f 78/3/39 74/4/37 73/2/37 77/1/39
f 76/7/38 80/8/40 79/6/40 75/5/38
f 82/3/41 78/4/39 77/2/39 81/1/41
f 80/7/40 84/8/42 83/6/42 79/5/40
f 86/3/43 82/4/41 81/2/41 85/1/43
f 84/7/42 88/8/44 87/6/44 83/5/42
f 90/3/45 86/4/43 85/2/43 89/1/45
f 88/7/44 92/8/46 91/6/46 87/5/44
f 94/3/47 90/4/45 89/2/45 93/1/47
f 92/7/46 96/8/48 95/6/48 91/5/46
f 98/3/3 94/4/47 93/2/47 97/1/3
f 96/7/48 100/8/2 99/6/2 95/5/48
f 102/3/4 98/4/3 97/2/3 101/1/4
f 100/7/2 104/8/1 103/6/1 99/5/2
f 106/3/6 102/4/4 101/2/4 105/1/6
f 104/7/1 108/8/5 107/6/5 103/5/1
f 110/3/8 106/4/6 105/2/6 109/1/8
f 108/7/5 112/8/7 111/6/7 107/5/5
f 114/3/10 110/4/8 109/2/8 113/1/10
f 112/7/7 116/8/49 115/6/49 111/5/7
f 118/3/12 114/4/10 113/2/10 117/1/12
f 116/7/49 120/8/11 119/6/11 115/5/49
f 122/3/14 118/4/12 117/2/12 121/1/14
f 120/7/11 124/8/13 123/6/13 119/5/11
f 126/3/16 122/4/14 121/2/14 125/1/16
f 124/7/13 128/8/15 127/6/15 123/5/13
f 130/3/50 126/4/16 125/2/16 129/1/50
f 128/7/15 132/8/51 131/6/51 127/5/15
f 134/3/20 130/4/50 129/2/50 133/1/20
f 132/7/51 136/8/19 135/6/19 131/5/51
f 138/3/22 134/4/20 133/2/20 137/1/22
f 136/7/19 140/8/21 139/6/21 135/5/19
f 142/3/24 138/4/22 137/2/22 141/1/24
f 140/7/21 144/8/23 143/6/23 139/5/21
f 146/3/26 142/4/24 141/2/24 145/1/26
f 144/7/23 148/8/25 147/6/25 143/5/23
f 150/3/28 146/4/26 145/2/26 149/1/28
f 148/7/25 152/8/27 151/6/27 147/5/25
f 154/3/30 150/4/28 149/2/28 153/1/30
f 152/7/27 156/8/29 155/6/29 151/5/27
f 158/3/32 154/4/30 153/2/30 157/1/32
f 156/7/29 160/8/31 159/6/31 155/5/29
f 162/3/52 158/4/32 157/2/32 161/1/52
f 160/7/31 164/8/53 163/6/53 159/5/31
f 166/3/36 162/4/52 161/2/52 165/1/36
f 164/7/53 168/8/35 167/6/35 163/5/53
f 170/3/38 166/4/36 165/2/36 169/1/38
f 168/7/35 172/8/37 171/6/37 167/5/35
f 174/3/40 170/4/38 169/2/38 173/1/40
f 172/7/37 176/8/39 175/6/39 171/5/37
f 178/3/42 174/4/40 173/2/40 177/1/42
f 176/7/39 180/8/41 179/6/41 175/5/39
f 182/3/44 178/4/42 177/2/42 181/1/44
f 180/7/41 184/8/43 183/6/43 179/5/41
f 186/3/46 182/4/44 181/2/44 185/1/46
f 184/7/43 188/8/45 187/6/45 183/5/43
f 190/3/48 186/4/46 185/2/46 189/1/48
f 188/7/45 192/8/47 191/6/47 187/5/45
f 4/3/2 190/4/48 189/2/48 2/1/2
f 192/7/47 7/8/3 5/6/3 191/5/47
f 5/11/54 6/12/54 1/10/54 2/9/54
f 8/15/55 7/16/55 4/14/55 3/13/55
f 6/12/54 11/18/54 9/17/54 1/10/54
f 12/20/55 8/15/55 3/13/55 10/19/55
f 11/18/54 15/22/54 13/21/54 9/17/54
f 16/24/55 12/20/55 10/19/55 14/23/55
f 15/22/54 19/26/54 17/25/54 13/21/54
f 20/28/55 16/24/55 14/23/55 18/27/55
f 19/26/54 23/30/54 21/29/54 17/25/54
f 24/32/55 20/28/55 18/27/55 22/31/55
f 23/30/54 27/34/54 25/33/54 21/29/54
f 28/36/55 24/32/55 22/31/55 26/35/55
f 27/34/54 31/38/54 29/37/54 25/33/54
f 32/40/55 28/36/55 26/35/55 30/39/55
f 31/38/54 35/42/54 33/41/54 29/37/54
f 36/44/55 32/40/55 30/39/55 34/43/55
f 35/42/54 39/46/54 37/45/54 33/41/54
f 40/48/55 36/44/55 34/43/55 38/47/55
f 39/46/54 43/50/54 41/49/54 37/45/54
f 44/52/55 40/48/55 38/47/55 42/51/55
f 43/50/54 47/54/54 45/53/54 41/49/54
f 48/56/55 44/52/55 42/51/55 46/55/55
f 47/54/54 51/58/54 49/57/54 45/53/54
f 52/58/55 48/56/55 46/55/55 50/57/55
f 51/58/54 55/56/54 53/55/54 49/57/54
f 56/54/55 52/58/55 50/57/55 54/53/55
f 55/56/54 59/52/54 57/51/54 53/55/54
f 60/50/55 56/54/55 54/53/55 58/49/55
f 59/52/54 63/48/54 61/47/54 57/51/54
f 64/46/55 60/50/55 58/49/55 62/45/55
f 63/48/54 67/60/54 65/59/54 61/47/54
f 68/62/55 64/46/55 62/45/55 66/61/55
f 67/60/54 71/40/54 69/39/54 65/59/54
f 72/38/55 68/62/55 66/61/55 70/37/55
f 71/40/54 75/36/54 73/35/54 69/39/54
f 76/34/55 72/38/55 70/37/55 74/33/55
f 75/36/54 79/32/54 77/31/54 73/35/54
f 80/30/55 76/34/55 74/33/55 78/29/55
f 79/32/54 83/63/54 81/27/54 77/31/54
f 84/64/55 80/30/55 78/29/55 82/25/55
f 83/63/54 87/24/54 85/23/54 81/27/54
f 88/22/55 84/64/55 82/25/55 86/21/55
f 87/24/54 91/20/54 89/19/54 85/23/54
f 92/18/55 88/22/55 86/21/55 90/17/55
f 91/20/54 95/15/54 93/13/54 89/19/54
f 96/12/55 92/18/55 90/17/55 94/10/55
f 95/15/54 99/16/54 97/14/54 93/13/54
f 100/11/55 96/12/55 94/10/55 98/9/55
f 99/16/54 103/66/54 101/65/54 97/14/54
f 104/68/55 100/11/55 98/9/55 102/67/55
f 103/66/54 107/70/54 105/69/54 101/65/54
f 108/72/55 104/68/55 102/67/55 106/71/55
f 107/70/54 111/74/54 109/73/54 105/69/54
f 112/76/55 108/72/55 106/71/55 110/75/55
f 111/74/54 115/78/54 113/77/54 109/73/54
f 116/80/55 112/76/55 110/75/55 114/79/55
f 115/78/54 119/82/54 117/81/54 113/77/54
f 120/84/55 116/80/55 114/79/55 118/83/55
f 119/82/54 123/86/54 121/85/54 117/81/54
f 124/88/55 120/84/55 118/83/55 122/87/55
f 123/86/54 127/90/54 125/89/54 121/85/54
f 128/92/55 124/88/55 122/87/55 126/91/55
f 127/90/54 131/94/54 129/93/54 125/89/54
f 132/96/55 128/92/55 126/91/55 130/95/55
f 131/94/54 135/98/54 133/97/54 129/93/54
f 136/100/55 132/96/55 130/95/55 134/99/55
f 135/98/54 139/102/54 137/101/54 133/97/54
f 140/104/55 136/100/55 134/99/55 138/103/55
f 139/102/54 143/106/54 141/105/54 137/101/54
f 144/108/55 140/104/55 138/103/55 142/107/55
f 143/106/54 147/110/54 145/109/54 141/105/54
f 148/110/55 144/108/55 142/107/55 146/109/55
f 147/110/54 151/108/54 149/107/54 145/109/54
f 152/106/55 148/110/55 146/109/55 150/105/55
f 151/108/54 155/104/54 153/103/54 149/107/54
f 156/102/55 152/106/55 150/105/55 154/101/55
f 155/104/54 159/100/54 157/99/54 153/103/54
f 160/98/55 156/102/55 154/101/55 158/97/55
f 159/100/54 163/96/54 161/95/54 157/99/54
f 164/94/55 160/98/55 158/97/55 162/93/55
f 163/96/54 167/92/54 165/91/54 161/95/54
f 168/90/55 164/94/55 162/93/55 166/89/55
f 167/92/54 171/88/54 169/87/54 165/91/54
f 172/86/55 168/90/55 166/89/55 170/85/55
f 171/88/54 175/84/54 173/83/54 169/87/54
f 176/82/55 172/86/55 170/85/55 174/81/55
f 175/84/54 179/112/54 177/111/54 173/83/54
f 180/114/55 176/82/55 174/81/55 178/113/55
f 179/112/54 183/76/54 181/75/54 177/111/54
f 184/74/55 180/114/55 178/113/55 182/73/55
f 183/76/54 187/72/54 185/71/54 181/75/54
f 188/70/55 184/74/55 182/73/55 186/69/55
f 187/72/54 191/68/54 189/67/54 185/71/54
f 192/66/55 188/70/55 186/69/55 190/65/55
f 191/68/54 5/11/54 2/9/54 189/67/54
f 7/16/55 192/66/55 190/65/55 4/14/55

